<svg xmlns="http://www.w3.org/2000/svg" xmlns:xlink="http://www.w3.org/1999/xlink" contentStyleType="text/css" data-diagram-type="DESCRIPTION" height="231px" preserveAspectRatio="none" style="width:1200px;height:231px;background:#FFFFFF;" version="1.1" viewBox="0 0 1200 231" width="1200px" zoomAndPan="magnify"><defs/><g><!--cluster Layers--><g class="cluster" data-entity="Layers" data-source-line="1" data-uid="ent0002" id="cluster_Layers"><path d="M439.5,127 L492.7266,127 A3.75,3.75 0 0 1 495.2266,129.5 L502.2266,149.2969 L846.5,149.2969 A2.5,2.5 0 0 1 849,151.7969 L849,221.5 A2.5,2.5 0 0 1 846.5,224 L439.5,224 A2.5,2.5 0 0 1 437,221.5 L437,129.5 A2.5,2.5 0 0 1 439.5,127" fill="none" style="stroke:#000000;stroke-width:1.5;"/><line style="stroke:#000000;stroke-width:1.5;" x1="437" x2="502.2266" y1="149.2969" y2="149.2969"/><text fill="#000000" font-family="sans-serif" font-size="14" font-weight="bold" lengthAdjust="spacing" textLength="52.2266" x="441" y="141.9951">Layers</text></g><!--cluster Model layer--><g class="cluster" data-entity="Model layer" data-source-line="7" data-uid="ent0006" id="cluster_Model layer"><path d="M8.5,6 L102.0107,6 A3.75,3.75 0 0 1 104.5107,8.5 L111.5107,28.2969 L294.5,28.2969 A2.5,2.5 0 0 1 297,30.7969 L297,100.5 A2.5,2.5 0 0 1 294.5,103 L8.5,103 A2.5,2.5 0 0 1 6,100.5 L6,8.5 A2.5,2.5 0 0 1 8.5,6" fill="none" style="stroke:#000000;stroke-width:1.5;"/><line style="stroke:#000000;stroke-width:1.5;" x1="6" x2="111.5107" y1="28.2969" y2="28.2969"/><text fill="#000000" font-family="sans-serif" font-size="14" font-weight="bold" lengthAdjust="spacing" textLength="92.5107" x="10" y="20.9951">Model layer</text></g><!--cluster Service layer--><g class="cluster" data-entity="Service layer" data-source-line="14" data-uid="ent0011" id="cluster_Service layer"><path d="M323.5,6 L427.3467,6 A3.75,3.75 0 0 1 429.8467,8.5 L436.8467,28.2969 L995.5,28.2969 A2.5,2.5 0 0 1 998,30.7969 L998,100.5 A2.5,2.5 0 0 1 995.5,103 L323.5,103 A2.5,2.5 0 0 1 321,100.5 L321,8.5 A2.5,2.5 0 0 1 323.5,6" fill="none" style="stroke:#000000;stroke-width:1.5;"/><line style="stroke:#000000;stroke-width:1.5;" x1="321" x2="436.8467" y1="28.2969" y2="28.2969"/><text fill="#000000" font-family="sans-serif" font-size="14" font-weight="bold" lengthAdjust="spacing" textLength="102.8467" x="325" y="20.9951">Service layer</text></g><!--cluster Infrastructure layer--><g class="cluster" data-entity="Infrastructure layer" data-source-line="25" data-uid="ent0020" id="cluster_Infrastructure layer"><path d="M1024.5,6 L1181.0176,6 A3.75,3.75 0 0 1 1183.5176,8.5 L1190.5176,28.2969 L1190.5,28.2969 A2.5,2.5 0 0 1 1193,30.7969 L1193,100.5 A2.5,2.5 0 0 1 1190.5,103 L1024.5,103 A2.5,2.5 0 0 1 1022,100.5 L1022,8.5 A2.5,2.5 0 0 1 1024.5,6" fill="none" style="stroke:#000000;stroke-width:1.5;"/><line style="stroke:#000000;stroke-width:1.5;" x1="1022" x2="1190.5176" y1="28.2969" y2="28.2969"/><text fill="#000000" font-family="sans-serif" font-size="14" font-weight="bold" lengthAdjust="spacing" textLength="155.5176" x="1026" y="20.9951">Infrastructure layer</text></g><!--entity Model--><g class="entity" data-entity="Model" data-source-line="2" data-uid="ent0003" id="entity_Model"><rect fill="#F1F1F1" height="46.2969" rx="2.5" ry="2.5" style="stroke:#181818;stroke-width:0.5;" width="82.0342" x="453" y="162"/><rect fill="#F1F1F1" height="10" style="stroke:#181818;stroke-width:0.5;" width="15" x="515.0342" y="167"/><rect fill="#F1F1F1" height="2" style="stroke:#181818;stroke-width:0.5;" width="4" x="513.0342" y="169"/><rect fill="#F1F1F1" height="2" style="stroke:#181818;stroke-width:0.5;" width="4" x="513.0342" y="173"/><text fill="#000000" font-family="sans-serif" font-size="14" lengthAdjust="spacing" textLength="42.0342" x="468" y="194.9951">Model</text></g><!--entity Service--><g class="entity" data-entity="Service" data-source-line="3" data-uid="ent0004" id="entity_Service"><rect fill="#F1F1F1" height="46.2969" rx="2.5" ry="2.5" style="stroke:#181818;stroke-width:0.5;" width="91.7412" x="570" y="162"/><rect fill="#F1F1F1" height="10" style="stroke:#181818;stroke-width:0.5;" width="15" x="641.7412" y="167"/><rect fill="#F1F1F1" height="2" style="stroke:#181818;stroke-width:0.5;" width="4" x="639.7412" y="169"/><rect fill="#F1F1F1" height="2" style="stroke:#181818;stroke-width:0.5;" width="4" x="639.7412" y="173"/><text fill="#000000" font-family="sans-serif" font-size="14" lengthAdjust="spacing" textLength="51.7412" x="585" y="194.9951">Service</text></g><!--entity Infrastructure--><g class="entity" data-entity="Infrastructure" data-source-line="4" data-uid="ent0005" id="entity_Infrastructure"><rect fill="#F1F1F1" height="46.2969" rx="2.5" ry="2.5" style="stroke:#181818;stroke-width:0.5;" width="136.1064" x="697" y="162"/><rect fill="#F1F1F1" height="10" style="stroke:#181818;stroke-width:0.5;" width="15" x="813.1064" y="167"/><rect fill="#F1F1F1" height="2" style="stroke:#181818;stroke-width:0.5;" width="4" x="811.1064" y="169"/><rect fill="#F1F1F1" height="2" style="stroke:#181818;stroke-width:0.5;" width="4" x="811.1064" y="173"/><text fill="#000000" font-family="sans-serif" font-size="14" lengthAdjust="spacing" textLength="96.1064" x="712" y="194.9951">Infrastructure</text></g><!--entity ExamPaper--><g class="entity" data-entity="ExamPaper" data-source-line="8" data-uid="ent0007" id="entity_ExamPaper"><rect fill="#F1F1F1" height="46.2969" rx="2.5" ry="2.5" style="stroke:#181818;stroke-width:0.5;" width="119.625" x="161" y="41"/><rect fill="#F1F1F1" height="10" style="stroke:#181818;stroke-width:0.5;" width="15" x="260.625" y="46"/><rect fill="#F1F1F1" height="2" style="stroke:#181818;stroke-width:0.5;" width="4" x="258.625" y="48"/><rect fill="#F1F1F1" height="2" style="stroke:#181818;stroke-width:0.5;" width="4" x="258.625" y="52"/><text fill="#000000" font-family="sans-serif" font-size="14" lengthAdjust="spacing" textLength="79.625" x="176" y="73.9951">ExamPaper</text></g><!--entity Question--><g class="entity" data-entity="Question" data-source-line="9" data-uid="ent0008" id="entity_Question"><rect fill="#F1F1F1" height="46.2969" rx="2.5" ry="2.5" style="stroke:#181818;stroke-width:0.5;" width="102.6172" x="22.5" y="41"/><rect fill="#F1F1F1" height="10" style="stroke:#181818;stroke-width:0.5;" width="15" x="105.1172" y="46"/><rect fill="#F1F1F1" height="2" style="stroke:#181818;stroke-width:0.5;" width="4" x="103.1172" y="48"/><rect fill="#F1F1F1" height="2" style="stroke:#181818;stroke-width:0.5;" width="4" x="103.1172" y="52"/><text fill="#000000" font-family="sans-serif" font-size="14" lengthAdjust="spacing" textLength="62.6172" x="37.5" y="73.9951">Question</text></g><!--entity JSON Repository--><g class="entity" data-entity="JSON Repository" data-source-line="15" data-uid="ent0012" id="entity_JSON Repository"><rect fill="#F1F1F1" height="46.2969" rx="2.5" ry="2.5" style="stroke:#181818;stroke-width:0.5;" width="154.0303" x="828" y="41"/><rect fill="#F1F1F1" height="10" style="stroke:#181818;stroke-width:0.5;" width="15" x="962.0303" y="46"/><rect fill="#F1F1F1" height="2" style="stroke:#181818;stroke-width:0.5;" width="4" x="960.0303" y="48"/><rect fill="#F1F1F1" height="2" style="stroke:#181818;stroke-width:0.5;" width="4" x="960.0303" y="52"/><text fill="#000000" font-family="sans-serif" font-size="14" lengthAdjust="spacing" textLength="114.0303" x="843" y="73.9951">JSON Repository</text></g><!--entity Factory--><g class="entity" data-entity="Factory" data-source-line="17" data-uid="ent0014" id="entity_Factory"><rect fill="#F1F1F1" height="46.2969" rx="2.5" ry="2.5" style="stroke:#181818;stroke-width:0.5;" width="92.4248" x="701" y="41"/><rect fill="#F1F1F1" height="10" style="stroke:#181818;stroke-width:0.5;" width="15" x="773.4248" y="46"/><rect fill="#F1F1F1" height="2" style="stroke:#181818;stroke-width:0.5;" width="4" x="771.4248" y="48"/><rect fill="#F1F1F1" height="2" style="stroke:#181818;stroke-width:0.5;" width="4" x="771.4248" y="52"/><text fill="#000000" font-family="sans-serif" font-size="14" lengthAdjust="spacing" textLength="52.4248" x="716" y="73.9951">Factory</text></g><!--entity Exporter--><g class="entity" data-entity="Exporter" data-source-line="19" data-uid="ent0016" id="entity_Exporter"><rect fill="#F1F1F1" height="46.2969" rx="2.5" ry="2.5" style="stroke:#181818;stroke-width:0.5;" width="100.1973" x="566" y="41"/><rect fill="#F1F1F1" height="10" style="stroke:#181818;stroke-width:0.5;" width="15" x="646.1973" y="46"/><rect fill="#F1F1F1" height="2" style="stroke:#181818;stroke-width:0.5;" width="4" x="644.1973" y="48"/><rect fill="#F1F1F1" height="2" style="stroke:#181818;stroke-width:0.5;" width="4" x="644.1973" y="52"/><text fill="#000000" font-family="sans-serif" font-size="14" lengthAdjust="spacing" textLength="60.1973" x="581" y="73.9951">Exporter</text></g><!--entity ExamPaper generator--><g class="entity" data-entity="ExamPaper generator" data-source-line="21" data-uid="ent0018" id="entity_ExamPaper generator"><rect fill="#F1F1F1" height="46.2969" rx="2.5" ry="2.5" style="stroke:#181818;stroke-width:0.5;" width="193.207" x="337.5" y="41"/><rect fill="#F1F1F1" height="10" style="stroke:#181818;stroke-width:0.5;" width="15" x="510.707" y="46"/><rect fill="#F1F1F1" height="2" style="stroke:#181818;stroke-width:0.5;" width="4" x="508.707" y="48"/><rect fill="#F1F1F1" height="2" style="stroke:#181818;stroke-width:0.5;" width="4" x="508.707" y="52"/><text fill="#000000" font-family="sans-serif" font-size="14" lengthAdjust="spacing" textLength="153.207" x="352.5" y="73.9951">ExamPaper generator</text></g><!--entity WebAPI--><g class="entity" data-entity="WebAPI" data-source-line="26" data-uid="ent0021" id="entity_WebAPI"><rect fill="#F1F1F1" height="46.2969" rx="2.5" ry="2.5" style="stroke:#181818;stroke-width:0.5;" width="93.4912" x="1037.5" y="41"/><rect fill="#F1F1F1" height="10" style="stroke:#181818;stroke-width:0.5;" width="15" x="1110.9912" y="46"/><rect fill="#F1F1F1" height="2" style="stroke:#181818;stroke-width:0.5;" width="4" x="1108.9912" y="48"/><rect fill="#F1F1F1" height="2" style="stroke:#181818;stroke-width:0.5;" width="4" x="1108.9912" y="52"/><text fill="#000000" font-family="sans-serif" font-size="14" lengthAdjust="spacing" textLength="53.4912" x="1052.5" y="73.9951">WebAPI</text></g><!--link ExamPaper to Model--><g class="link" data-entity-1="ExamPaper" data-entity-2="Model" data-source-line="10" data-uid="lnk9" id="link_ExamPaper_Model"><path d="M268.17,87.07 C284.81,94.76 303.69,103.37 321,111 C365.89,130.79 412.2471,150.2431 447.4071,164.8131" fill="none" id="ExamPaper-to-Model" style="stroke:#181818;stroke-width:1;"/><polygon fill="#181818" points="452.95,167.11,446.1669,159.9693,448.3309,165.1959,443.1043,167.3599,452.95,167.11" style="stroke:#181818;stroke-width:1;"/></g><!--link Question to Model--><g class="link" data-entity-1="Question" data-entity-2="Model" data-source-line="11" data-uid="lnk10" id="link_Question_Model"><path d="M102.25,87.07 C114.5,95.68 129.36,104.92 144,111 C250.2,155.09 380.0113,172.9882 446.9413,179.8482" fill="none" id="Question-to-Model" style="stroke:#181818;stroke-width:1;"/><polygon fill="#181818" points="452.91,180.46,444.3647,175.5632,447.9361,179.9502,443.5491,183.5215,452.91,180.46" style="stroke:#181818;stroke-width:1;"/></g><!--link JSON Repository to Service--><g class="link" data-entity-1="JSON Repository" data-entity-2="Service" data-source-line="16" data-uid="lnk13" id="link_JSON Repository_Service"><path d="M868.36,87.12 C851.49,96.18 830.85,105.76 811,111 C782.8,118.44 706.55,106.92 680,119 C659.82,128.18 646.2263,142.0027 634.7363,156.9527" fill="none" id="JSON Repository-to-Service" style="stroke:#181818;stroke-width:1;"/><polygon fill="#181818" points="631.08,161.71,639.7359,157.0116,634.1269,157.7456,633.3929,152.1366,631.08,161.71" style="stroke:#181818;stroke-width:1;"/></g><!--link Factory to Service--><g class="link" data-entity-1="Factory" data-entity-2="Service" data-source-line="18" data-uid="lnk15" id="link_Factory_Service"><path d="M718.04,87.16 C706.01,96.66 692.07,108.07 680,119 C664.97,132.6 653.1083,144.5055 640.8683,157.3555" fill="none" id="Factory-to-Service" style="stroke:#181818;stroke-width:1;"/><polygon fill="#181818" points="636.73,161.7,645.8337,157.9421,640.1786,158.0796,640.0411,152.4244,636.73,161.7" style="stroke:#181818;stroke-width:1;"/></g><!--link Exporter to Service--><g class="link" data-entity-1="Exporter" data-entity-2="Service" data-source-line="20" data-uid="lnk17" id="link_Exporter_Service"><path d="M616,87.1 C616,108.34 616,134.28 616,155.61" fill="none" id="Exporter-to-Service" style="stroke:#181818;stroke-width:1;"/><polygon fill="#181818" points="616,161.61,620,152.61,616,156.61,612,152.61,616,161.61" style="stroke:#181818;stroke-width:1;"/></g><!--link ExamPaper generator to Service--><g class="link" data-entity-1="ExamPaper generator" data-entity-2="Service" data-source-line="22" data-uid="lnk19" id="link_ExamPaper generator_Service"><path d="M494.17,87.09 C513.78,95.62 535.1,106.4 553,119 C570.09,131.03 582.5124,143.5655 594.2624,157.1955" fill="none" id="ExamPaper generator-to-Service" style="stroke:#181818;stroke-width:1;"/><polygon fill="#181818" points="598.18,161.74,595.3332,152.3116,594.9153,157.953,589.2739,157.5351,598.18,161.74" style="stroke:#181818;stroke-width:1;"/></g><!--link WebAPI to Infrastructure--><g class="link" data-entity-1="WebAPI" data-entity-2="Infrastructure" data-source-line="27" data-uid="lnk22" id="link_WebAPI_Infrastructure"><path d="M1046.22,87.19 C1031.48,95.32 1014.24,104.18 998,111 C943.96,133.68 886.1199,151.54 839.0199,164.66" fill="none" id="WebAPI-to-Infrastructure" style="stroke:#181818;stroke-width:1;"/><polygon fill="#181818" points="833.24,166.27,842.9833,167.7082,838.0566,164.9283,840.8366,160.0016,833.24,166.27" style="stroke:#181818;stroke-width:1;"/></g><!--SRC=[TP7B3e8m44Nt_Og6FRzWua8JZ0-KXGl2ejQH4A5jXc8Wnd-t2Ef0e9is9xTdUbCZv5samBsjQ01BZp-Pr8NH2fJbEts5dBj5M0Juo2GG4gWRYj9Y9Ms5m5wCcQ-q4-IjUcYELxKeGc404qgF5PGsqofX9C1zVy7ZZyhnNsI0wT3-XPDZDz5XpqzWT9bPZOtpZKcdxHtqSMiXsm2B-yDySbKRZHQmBT6TvhF_dZm51IYSchOdTEIWbOTVCDNy39Tb6B2ustlNy9fJlW40]--></g></svg>